<svg width="40" height="40" viewBox="0 0 40 40" fill="none" xmlns="http://www.w3.org/2000/svg">
<rect width="40" height="40" rx="5" fill="#E8443F"/>
<g clip-path="url(#clip0_166_122)">
<path fill-rule="evenodd" clip-rule="evenodd" d="M16.7527 8.86975C15.3246 9.6137 14.1561 10.2432 14.1564 10.2688C14.157 10.3349 17.584 12.0705 17.7056 12.0662C17.761 12.0644 18.1623 11.8796 18.5975 11.6557L19.3889 11.2486L20.2533 11.6929L21.1175 12.1373L22.5329 11.5013C24.6656 10.5429 24.8871 10.4379 24.8524 10.4026C24.8064 10.3558 24.0414 9.94485 21.966 8.85222C20.963 8.32414 19.9895 7.80637 19.8026 7.7016C19.6157 7.59683 19.4373 7.51255 19.4061 7.51418C19.375 7.51581 18.1809 8.12582 16.7527 8.86975ZM10.4889 12.1134L9.00219 12.8813V16.2516C9.00219 18.1052 9.02172 19.6218 9.04566 19.6218C9.06952 19.6218 9.80098 19.3047 10.6711 18.9172L12.2531 18.2126V14.6601L13.0261 15.0813C13.6218 15.4056 14.2179 15.7292 14.8144 16.0521L15.8295 16.6017L16.2812 16.3975C16.5645 16.2692 16.8472 16.1396 17.1294 16.0088C17.3474 15.9073 17.8826 15.6662 18.3187 15.473C18.7548 15.2797 19.1584 15.0854 19.2157 15.0411C19.2917 14.9822 18.3645 14.4699 15.7863 13.1459C13.8428 12.1479 12.1904 11.3345 12.1141 11.3384C12.0379 11.3423 11.3066 11.691 10.4889 12.1134ZM25.1204 12.329C24.1078 12.7861 23.2787 13.1784 23.2777 13.2008C23.2769 13.2231 23.8287 13.5512 24.5042 13.9298C25.1796 14.3085 25.7322 14.6386 25.7322 14.6634C25.7322 14.6882 25.1345 14.9778 24.4041 15.3071C23.6736 15.6363 21.8272 16.4701 20.3009 17.1601L15.1868 19.4718C13.9003 20.0533 12.7407 20.5775 12.6099 20.6368C9.9822 21.8263 9.25996 22.1564 9.16077 22.213C9.06104 22.2701 9.03844 22.6015 9.02069 24.2647L8.99951 26.2485L10.329 26.9259L11.6584 27.6033L13.5019 26.7713C14.5158 26.3138 15.3453 25.9155 15.3453 25.8861C15.3453 25.8569 15.158 25.7348 14.9291 25.6147C14.7001 25.4947 14.2274 25.2289 13.8785 25.024C13.5296 24.8191 13.1818 24.6311 13.1054 24.6061C13.0291 24.5813 12.9677 24.5378 12.969 24.5094C12.9702 24.4811 13.782 24.0955 14.7728 23.6525C16.6972 22.7921 18.1699 22.1289 21.3317 20.6991C22.7455 20.0599 24.1595 19.421 25.5736 18.7826C26.8165 18.2216 28.2615 17.5664 28.7849 17.3266L29.7363 16.8907L29.7575 14.8843L29.7787 12.878L28.4303 12.1859C27.6887 11.8053 27.0548 11.4948 27.0215 11.4959C26.9883 11.497 26.1328 11.8718 25.1204 12.329ZM29.3751 19.5673C29.1764 19.6643 28.7839 19.8461 28.5029 19.9711C28.2219 20.0961 27.6887 20.3367 27.318 20.5058L26.644 20.8132L26.6287 22.5746C26.6202 23.5434 26.5845 24.3317 26.5494 24.3266C26.4696 24.3147 25.2065 23.6669 23.9367 22.9866C23.0203 22.4956 22.9627 22.476 22.7474 22.5827C22.6229 22.6444 21.8788 22.9781 21.0938 23.3244C20.3088 23.6707 19.641 23.9766 19.6096 24.0043C19.5783 24.032 21.1581 24.8883 23.1204 25.9072L26.6882 27.7599L28.2123 26.9715C29.0505 26.538 29.7632 26.1425 29.796 26.0927C29.8699 25.9809 29.8636 19.3755 29.7896 19.3844C29.7604 19.3879 29.5738 19.4702 29.3751 19.5673ZM20.9352 27.3204C20.6709 27.434 20.4066 27.5479 20.1423 27.6618C19.3444 28.007 19.5008 28.0185 18.5516 27.5459C17.9193 27.2312 17.6468 27.1341 17.5285 27.1812C17.4398 27.2166 16.6761 27.5601 15.8314 27.9447C14.9867 28.3292 14.2663 28.6438 14.2304 28.6438C13.876 28.6438 14.4652 28.9959 16.7388 30.1427L19.4051 31.4876L20.527 30.9337C21.144 30.6291 22.3885 30.0191 23.2927 29.5782C24.1967 29.1371 24.9252 28.7649 24.9116 28.7508C24.8978 28.7368 24.1403 28.3478 23.2281 27.8864L21.5696 27.0475L20.9352 27.3204Z" fill="white"/>
</g>
<defs>
<clipPath id="clip0_166_122">
<rect width="20.8704" height="24" fill="white" transform="translate(9 7.5)"/>
</clipPath>
</defs>
</svg>
