<svg width="40" height="40" viewBox="0 0 40 40" fill="none" xmlns="http://www.w3.org/2000/svg">
<rect width="40" height="40" rx="5" fill="#FFCB45"/>
<g clip-path="url(#clip0_166_147)">
<path d="M20.501 8C13.5979 8 8.00098 13.5969 8.00098 20.5C8.00098 27.4031 13.5979 33 20.501 33C27.4041 33 33.001 27.4031 33.001 20.5C33.001 13.5969 27.4041 8 20.501 8ZM26.6406 16.5635L24.5885 26.2302C24.4374 26.9156 24.0291 27.0823 23.4593 26.7594L20.3343 24.4573L18.8281 25.9094C18.7543 26.0049 18.6596 26.0823 18.5512 26.1355C18.4429 26.1888 18.3238 26.2166 18.2031 26.2167H18.1979L18.4197 23.0354L24.2114 17.8042C24.4614 17.5823 24.1551 17.4563 23.8229 17.6781L16.6676 22.1844L13.5843 21.2219C12.9176 21.0104 12.8989 20.5552 13.7249 20.2281L25.7729 15.5844C26.3333 15.3802 26.8208 15.7177 26.6395 16.5646L26.6406 16.5635Z" fill="white"/>
</g>
<defs>
<clipPath id="clip0_166_147">
<rect width="25" height="25" fill="white" transform="translate(8 8)"/>
</clipPath>
</defs>
</svg>
